<svg width="811" height="260" viewBox="0 0 811 260" fill="none" xmlns="http://www.w3.org/2000/svg">
<g filter="url(#filter0_d_557_2158)">
<mask id="path-1-inside-1_557_2158" fill="white">
<path d="M53.2174 86.4783C53.2174 60.761 74.0654 39.913 99.7826 39.913H159.652C185.369 39.913 206.217 60.761 206.217 86.4783V146.348C206.217 172.065 185.369 192.913 159.652 192.913H99.7826C74.0654 192.913 53.2174 172.065 53.2174 146.348V86.4783Z"/>
</mask>
<path d="M53.2174 86.4783C53.2174 60.761 74.0654 39.913 99.7826 39.913H159.652C185.369 39.913 206.217 60.761 206.217 86.4783V146.348C206.217 172.065 185.369 192.913 159.652 192.913H99.7826C74.0654 192.913 53.2174 172.065 53.2174 146.348V86.4783Z" fill="#7C3AED" shape-rendering="crispEdges"/>
<path d="M99.7826 39.913V43.2391H159.652V39.913V36.587H99.7826V39.913ZM206.217 86.4783H202.891V146.348H206.217H209.543V86.4783H206.217ZM159.652 192.913V189.587H99.7826V192.913V196.239H159.652V192.913ZM53.2174 146.348H56.5435V86.4783H53.2174H49.8913V146.348H53.2174ZM99.7826 192.913V189.587C75.9023 189.587 56.5435 170.228 56.5435 146.348H53.2174H49.8913C49.8913 173.902 72.2284 196.239 99.7826 196.239V192.913ZM206.217 146.348H202.891C202.891 170.228 183.533 189.587 159.652 189.587V192.913V196.239C187.206 196.239 209.543 173.902 209.543 146.348H206.217ZM159.652 39.913V43.2391C183.533 43.2391 202.891 62.5979 202.891 86.4783H206.217H209.543C209.543 58.9241 187.206 36.587 159.652 36.587V39.913ZM99.7826 39.913V36.587C72.2284 36.587 49.8913 58.9241 49.8913 86.4783H53.2174H56.5435C56.5435 62.5979 75.9023 43.2391 99.7826 43.2391V39.913Z" fill="white" fill-opacity="0.3" mask="url(#path-1-inside-1_557_2158)"/>
<path d="M132.32 67.3216C132.673 68.0531 132.572 85.4761 132.57 87.7091L132.566 116.474L132.564 139.172C132.567 143.433 132.673 148.181 132.508 152.41C129.617 149.791 127.028 147.024 124.318 144.224L111.684 131.353C110.013 129.678 108.441 128.004 106.698 126.379C105.168 124.666 103.416 123.034 101.811 121.365C97.9963 117.38 94.1505 113.426 90.2742 109.502C88.594 107.802 84.3369 103.751 83.1443 101.998C89.7298 105.478 95.8142 106.962 103.236 104.549C108.834 102.73 112.586 99.3293 116.754 95.3711C123.498 88.9658 128.654 81.3467 131.143 72.3116C131.536 70.8785 131.631 68.6007 132.32 67.3216Z" fill="#FCFCFC"/>
<path d="M123.739 102.237C122.704 102.796 121.109 103.35 119.967 103.87C116.263 105.559 112.13 108.179 109.579 111.405L109.519 110.895C110.049 110.437 111.284 108.88 112.026 108.182C115.029 105.357 119.619 102.764 123.739 102.237Z" fill="#B9B7B7"/>
<path d="M109.579 111.405C109.201 111.893 108.473 112.902 108.026 113.248C107.883 112.858 109.202 111.236 109.519 110.895L109.579 111.405Z" fill="#7189BA"/>
<path d="M121.601 117.194C123.808 117.11 125.231 117.79 126.877 119.158C126.151 120.06 125.418 120.957 124.678 121.849C123.431 120.698 121.911 120.167 120.256 120.725C116.372 122.033 116.856 128.38 120.276 129.858C123.014 131.041 125.082 129.653 126.122 127.068C127.167 127.339 128.194 127.664 129.225 127.981L129.378 128.213C128.847 131.053 125.529 133.196 122.827 133.553C120.78 133.823 118.773 133.21 117.148 131.968C115.292 130.557 114.08 128.459 113.785 126.146C113.538 124.005 114.157 121.855 115.506 120.174C117.08 118.209 119.18 117.46 121.601 117.194Z" fill="#7C3AED"/>
<path d="M136.016 84.8629C136.195 84.9704 136.303 85.044 136.36 85.2698C136.92 87.621 137.55 89.8794 138.399 92.154C141.967 101.703 148.522 109.77 157.897 114.043C161.785 115.815 166.519 116.154 170.633 114.934C172.166 114.481 173.242 113.887 174.663 113.301L174.78 113.36C174.094 114.351 169.929 118.556 168.956 119.546C164.838 123.752 160.69 127.928 156.516 132.076L142.521 146.265C141.063 147.72 137.934 151.043 136.527 152.194L136.337 152.078C136.207 151.425 136.231 148.385 136.218 147.522C136.17 143.191 136.154 138.861 136.173 134.53L136.069 101.024C136.048 95.8001 136.206 90.0181 136.016 84.8629Z" fill="white"/>
<path d="M143.859 116.406C146.944 117.667 151.581 117.581 153.431 120.399C154.26 121.684 154.536 123.251 154.193 124.743C153.861 126.192 152.918 127.573 151.629 128.327C149.558 129.541 147.997 128.904 145.905 128.356L144.643 128.018C144.149 129.684 143.727 131.356 143.218 133.03C142.113 132.701 140.765 132.384 139.633 132.09C141.128 127.385 142.513 121.27 143.859 116.406Z" fill="#7C3AED"/>
<path d="M146.656 120.566C147.891 120.954 148.981 121.104 150.162 121.642C151.051 123.381 150.738 124.271 149.404 125.679C148.162 125.782 146.637 125.194 145.345 124.886C145.913 123.449 146.107 122.009 146.656 120.566Z" fill="white"/>
<path d="M143.719 105.521C144.594 106.307 145.653 107.621 146.529 108.521C149.368 111.438 153.23 114.444 157.127 115.757L156.667 115.985C156.057 115.641 154.175 115.004 153.267 114.541C149.594 112.667 145.605 109.222 143.719 105.521Z" fill="#FCFCFC"/>
<path d="M157.127 115.757C157.714 115.948 158.91 116.293 159.386 116.597C159.067 116.863 157.095 116.169 156.667 115.985L157.127 115.757Z" fill="#7189BA"/>
<path d="M112.518 67.5435C113.43 67.4989 114.452 67.5024 115.373 67.4847C113.94 69.8861 110.416 73.9244 108.672 76.2391C107.834 77.3515 103.807 82.6261 102.968 83.3192C98.5659 83.6759 92.9864 83.402 88.4338 83.5761C89.0117 85.2541 89.2019 86.3292 90.2973 87.7946C90.7986 88.4653 92.0705 89.368 92.1589 89.7148C91.2086 90.746 90.4807 89.4763 89.7641 89.3087C89.6093 89.821 89.3929 90.5181 88.7815 90.5488C88.5162 90.2513 88.4389 88.3074 88.2933 87.7492C87.9232 86.3286 87.1225 84.9535 86.3055 83.7758C85.359 83.6508 84.266 83.5959 83.3035 83.5253C84.6272 81.2236 87.5695 77.7585 89.1947 75.4791C90.977 73.1764 92.6376 70.8014 94.5325 68.5873C95.5483 67.4005 96.8542 67.7309 98.2908 67.6716C99.3499 67.6278 100.443 67.6504 101.506 67.6414L112.518 67.5435Z" fill="black"/>
<path d="M96.6137 70.5107C98.6643 70.4727 100.33 70.3837 102.383 70.6044L97.1114 71.2462C95.9589 72.3346 92.8149 75.9165 91.7309 77.2309L91.3049 77.0698C92.9438 75.063 95.1035 72.5515 96.6137 70.5107Z" fill="white"/>
<path d="M91.305 77.0697L91.7309 77.2309C91.0545 78.0505 90.4922 78.6673 89.7547 79.4339L89.3943 79.3578C90.0539 78.6086 90.6124 77.8015 91.305 77.0697Z" fill="white"/>
<path d="M89.3942 79.3578L89.7546 79.4339C89.2863 79.9834 88.7384 80.5017 88.2227 81.0103C88.5716 80.3675 88.8488 79.8483 89.3942 79.3578Z" fill="white"/>
<path d="M106.579 142.186C105.021 146.105 106.792 150.284 109.712 153.011C111.103 154.308 112.459 155.793 114.163 156.753C120.128 160.113 127.332 160.992 134.076 161.114C141.789 161.015 149.366 159.515 155.808 155.086C160.169 152.089 163.61 147.918 161.826 142.339C161.612 141.669 160.751 140.126 160.736 139.569C161.751 140.303 162.664 142.489 163.068 143.65C166.522 153.572 156.504 160.725 148.163 163.38C137.156 166.803 124.582 166.193 114.316 160.794C107.191 157.045 101.735 149.505 106.1 141.555L106.368 141.623C106.445 141.819 106.51 141.985 106.579 142.186Z" fill="white"/>
<path d="M109.674 76.3393C110.7 76.5271 111.166 77.4545 111.814 78.1171C115.653 82.0407 116.096 87.9694 112.568 92.2519C111.245 93.8588 110.138 95.1885 108.057 95.9548C105.37 96.9442 101.895 96.8275 99.2808 95.6753C94.7313 93.827 92.9286 89.1455 92.6946 84.5265L103.369 84.5303C105.366 82.2686 107.606 78.4516 109.674 76.3393Z" fill="black"/>
<path d="M111.364 80.8884C113.616 82.7221 113.403 86.576 112.839 89.0957C112.812 89.143 112.691 89.2771 112.65 89.3247C112.325 89.0668 112.463 85.7596 112.275 84.7345C111.987 83.1713 111.803 82.4032 111.364 80.8884Z" fill="#FCFCFC"/>
<path d="M150.927 83.7428C153.262 83.6876 156.643 83.9965 159.039 84.06C160.822 84.1072 164.553 84.1962 166.186 84.4435C166.905 85.0858 168.058 86.6183 168.7 87.4259L173.403 93.352C174.241 94.4065 175.35 95.902 176.29 96.819C175.455 96.8134 174.582 96.7613 173.743 96.7233C172.783 98.7685 172.258 99.3084 171.731 101.527L171.402 101.798L171.236 101.752C171.19 101.354 171.238 101.324 171.032 101.013C170.469 101.177 170.49 101.577 169.929 101.771C169.646 101.59 169.51 101.557 169.4 101.25C169.649 100.577 170.611 99.4565 171.054 98.7665C171.507 98.0636 171.731 97.6454 172.11 96.8838C168.494 96.4136 164.245 96.6588 160.532 96.3123C159.612 95.407 151.206 84.4533 150.927 83.7428Z" fill="black"/>
<path d="M161.726 86.0318L165.397 86.03C165.856 86.8915 169.096 91.0148 169.855 91.9843L169.543 92.1307C168.452 90.7965 166.161 87.9469 164.797 86.944C164.505 86.7297 162.333 86.2205 161.726 86.0318Z" fill="#FCFCFC"/>
<path d="M169.855 91.9843C170.399 92.4884 171.147 93.5602 171.59 94.1912C170.767 93.5792 170.187 92.9279 169.543 92.1307L169.855 91.9843Z" fill="#7189BA"/>
<path d="M154.892 90.7661C155.589 91.0984 158.741 96.0643 159.897 97.1269C161.04 97.1954 167.833 97.1501 168.184 97.402C168.507 98.0117 168.186 99.9136 167.987 100.615C167.243 103.22 166.013 104.664 163.729 105.996C157.205 109.021 149.734 104.476 150.966 97.0486C151.419 94.3233 152.703 92.4121 154.892 90.7661Z" fill="black"/>
<path d="M153.967 94.1623C154.191 94.4862 153.204 97.1239 153.168 97.7633C153.106 98.8768 153.25 99.9695 153.239 101.079L153.07 101.107C152.091 98.6227 152.452 96.3373 153.967 94.1623Z" fill="#FCFCFC"/>
<path d="M106.1 141.555C106.508 140.701 106.752 140.342 107.418 139.679L107.639 139.605C107.675 140.203 106.861 141.455 106.579 142.186C106.51 141.985 106.445 141.819 106.368 141.623L106.1 141.555Z" fill="white"/>
</g>
<g filter="url(#filter1_d_557_2158)">
<path d="M276.351 138.011C270.79 138.011 266.034 136.914 262.082 134.719C258.131 132.523 255.082 129.45 252.936 125.499C250.838 121.499 249.789 116.791 249.789 111.376C249.789 107.327 250.375 103.693 251.545 100.473C252.765 97.2048 254.521 94.4242 256.814 92.1314C259.107 89.7898 261.887 87.9849 265.156 86.7165C268.473 85.4482 272.205 84.814 276.351 84.814C278.79 84.814 281.254 85.1311 283.742 85.7653C286.279 86.3506 288.474 87.2043 290.328 88.3263C291.547 89.0093 292.376 89.863 292.815 90.8874C293.254 91.9119 293.376 92.9363 293.181 93.9607C293.035 94.9852 292.62 95.8633 291.937 96.595C291.303 97.3267 290.498 97.7902 289.523 97.9853C288.547 98.1804 287.449 97.9609 286.23 97.3267C284.766 96.4486 283.23 95.8145 281.62 95.4242C280.01 95.0339 278.376 94.8388 276.717 94.8388C273.449 94.8388 270.693 95.4974 268.449 96.8145C266.253 98.0829 264.595 99.9366 263.473 102.376C262.351 104.815 261.79 107.815 261.79 111.376C261.79 114.888 262.351 117.889 263.473 120.377C264.595 122.864 266.253 124.767 268.449 126.084C270.693 127.352 273.449 127.987 276.717 127.987C278.278 127.987 279.864 127.791 281.473 127.401C283.132 127.011 284.718 126.401 286.23 125.572C287.498 124.938 288.62 124.718 289.596 124.913C290.62 125.06 291.45 125.499 292.084 126.23C292.767 126.913 293.181 127.743 293.328 128.718C293.523 129.694 293.425 130.67 293.035 131.645C292.645 132.621 291.913 133.45 290.84 134.133C289.035 135.353 286.815 136.304 284.181 136.987C281.547 137.67 278.937 138.011 276.351 138.011ZM313.263 138.011C309.409 138.011 306.043 137.255 303.165 135.743C300.336 134.231 298.14 132.06 296.579 129.231C295.018 126.401 294.238 123.06 294.238 119.206C294.238 116.328 294.677 113.742 295.555 111.449C296.433 109.157 297.701 107.205 299.36 105.595C301.067 103.937 303.092 102.693 305.433 101.864C307.775 100.985 310.385 100.546 313.263 100.546C317.117 100.546 320.458 101.303 323.288 102.815C326.166 104.327 328.386 106.473 329.947 109.254C331.556 112.035 332.361 115.352 332.361 119.206C332.361 122.133 331.898 124.743 330.971 127.035C330.093 129.328 328.825 131.304 327.166 132.962C325.507 134.621 323.483 135.889 321.093 136.767C318.751 137.597 316.141 138.011 313.263 138.011ZM313.263 129.743C314.873 129.743 316.263 129.353 317.434 128.572C318.605 127.791 319.532 126.645 320.215 125.133C320.897 123.572 321.239 121.596 321.239 119.206C321.239 115.645 320.507 113.035 319.044 111.376C317.58 109.669 315.653 108.815 313.263 108.815C311.702 108.815 310.312 109.181 309.092 109.913C307.921 110.644 306.994 111.791 306.311 113.352C305.677 114.864 305.36 116.815 305.36 119.206C305.36 122.767 306.092 125.426 307.555 127.182C309.019 128.889 310.921 129.743 313.263 129.743ZM350.206 138.011C345.864 138.011 342.62 136.816 340.474 134.426C338.328 131.987 337.254 128.377 337.254 123.596V90.5947C337.254 88.741 337.718 87.3507 338.645 86.4238C339.62 85.4482 341.011 84.9603 342.816 84.9603C344.572 84.9603 345.913 85.4482 346.84 86.4238C347.816 87.3507 348.304 88.741 348.304 90.5947V123.157C348.304 125.157 348.718 126.645 349.548 127.621C350.426 128.548 351.572 129.011 352.987 129.011C353.377 129.011 353.743 128.987 354.084 128.938C354.426 128.889 354.792 128.865 355.182 128.865C355.962 128.767 356.499 129.011 356.792 129.596C357.133 130.133 357.304 131.231 357.304 132.889C357.304 134.353 357.011 135.475 356.426 136.255C355.84 136.987 354.938 137.475 353.718 137.719C353.231 137.768 352.67 137.816 352.035 137.865C351.401 137.963 350.791 138.011 350.206 138.011ZM372.744 138.011C368.403 138.011 365.159 136.816 363.012 134.426C360.866 131.987 359.792 128.377 359.792 123.596V90.5947C359.792 88.741 360.256 87.3507 361.183 86.4238C362.158 85.4482 363.549 84.9603 365.354 84.9603C367.11 84.9603 368.451 85.4482 369.378 86.4238C370.354 87.3507 370.842 88.741 370.842 90.5947V123.157C370.842 125.157 371.256 126.645 372.086 127.621C372.964 128.548 374.11 129.011 375.525 129.011C375.915 129.011 376.281 128.987 376.622 128.938C376.964 128.889 377.33 128.865 377.72 128.865C378.501 128.767 379.037 129.011 379.33 129.596C379.671 130.133 379.842 131.231 379.842 132.889C379.842 134.353 379.549 135.475 378.964 136.255C378.379 136.987 377.476 137.475 376.257 137.719C375.769 137.768 375.208 137.816 374.574 137.865C373.939 137.963 373.33 138.011 372.744 138.011ZM400.633 138.011C396.389 138.011 392.73 137.255 389.657 135.743C386.632 134.182 384.29 132.011 382.632 129.231C381.022 126.401 380.217 123.084 380.217 119.279C380.217 115.571 380.998 112.327 382.559 109.547C384.12 106.717 386.291 104.522 389.071 102.961C391.901 101.351 395.096 100.546 398.657 100.546C401.242 100.546 403.584 100.985 405.682 101.864C407.779 102.693 409.584 103.912 411.097 105.522C412.609 107.083 413.755 109.01 414.536 111.303C415.316 113.547 415.706 116.059 415.706 118.84C415.706 119.767 415.414 120.474 414.828 120.962C414.243 121.401 413.389 121.62 412.267 121.62H389.291V115.913H407.731L406.56 116.937C406.56 114.937 406.267 113.279 405.682 111.962C405.096 110.596 404.243 109.571 403.121 108.888C402.047 108.205 400.706 107.864 399.096 107.864C397.291 107.864 395.754 108.278 394.486 109.108C393.218 109.937 392.242 111.132 391.559 112.693C390.876 114.254 390.535 116.132 390.535 118.328V118.913C390.535 122.621 391.388 125.352 393.096 127.109C394.852 128.865 397.437 129.743 400.852 129.743C402.023 129.743 403.364 129.596 404.877 129.304C406.389 129.011 407.804 128.548 409.121 127.913C410.243 127.377 411.243 127.206 412.121 127.401C412.999 127.548 413.682 127.938 414.17 128.572C414.658 129.206 414.926 129.938 414.975 130.767C415.072 131.597 414.902 132.426 414.463 133.255C414.023 134.036 413.292 134.694 412.267 135.231C410.609 136.158 408.731 136.841 406.633 137.28C404.584 137.768 402.584 138.011 400.633 138.011ZM437.573 151.183C434.939 151.183 432.402 150.963 429.963 150.524C427.572 150.085 425.45 149.427 423.597 148.548C422.475 148.061 421.67 147.426 421.182 146.646C420.743 145.865 420.548 145.036 420.597 144.158C420.694 143.28 420.987 142.499 421.475 141.816C422.011 141.134 422.67 140.646 423.45 140.353C424.231 140.109 425.06 140.182 425.938 140.573C428.085 141.548 430.06 142.182 431.865 142.475C433.719 142.768 435.304 142.914 436.622 142.914C439.744 142.914 442.085 142.207 443.646 140.792C445.207 139.377 445.988 137.207 445.988 134.28V128.718H446.646C445.915 130.962 444.402 132.792 442.11 134.206C439.817 135.621 437.28 136.328 434.5 136.328C431.28 136.328 428.475 135.597 426.085 134.133C423.694 132.621 421.84 130.523 420.523 127.84C419.206 125.108 418.548 121.962 418.548 118.401C418.548 115.718 418.914 113.279 419.645 111.083C420.426 108.888 421.499 107.01 422.865 105.449C424.28 103.888 425.963 102.693 427.914 101.864C429.914 100.985 432.109 100.546 434.5 100.546C437.378 100.546 439.914 101.254 442.11 102.668C444.354 104.034 445.842 105.839 446.573 108.083L445.842 110.425V106.254C445.842 104.449 446.305 103.083 447.232 102.156C448.207 101.181 449.573 100.693 451.33 100.693C453.086 100.693 454.427 101.181 455.354 102.156C456.281 103.083 456.744 104.449 456.744 106.254V133.036C456.744 139.036 455.086 143.548 451.769 146.573C448.5 149.646 443.768 151.183 437.573 151.183ZM437.792 128.06C439.451 128.06 440.866 127.67 442.036 126.889C443.256 126.108 444.207 125.011 444.89 123.596C445.573 122.133 445.915 120.401 445.915 118.401C445.915 115.376 445.159 113.035 443.646 111.376C442.183 109.669 440.232 108.815 437.792 108.815C436.134 108.815 434.695 109.205 433.475 109.986C432.256 110.718 431.304 111.815 430.621 113.279C429.987 114.693 429.67 116.401 429.67 118.401C429.67 121.425 430.402 123.791 431.865 125.499C433.329 127.206 435.304 128.06 437.792 128.06ZM482.153 138.011C477.909 138.011 474.25 137.255 471.177 135.743C468.152 134.182 465.811 132.011 464.152 129.231C462.542 126.401 461.737 123.084 461.737 119.279C461.737 115.571 462.518 112.327 464.079 109.547C465.64 106.717 467.811 104.522 470.591 102.961C473.421 101.351 476.616 100.546 480.177 100.546C482.763 100.546 485.104 100.985 487.202 101.864C489.3 102.693 491.105 103.912 492.617 105.522C494.129 107.083 495.275 109.01 496.056 111.303C496.837 113.547 497.227 116.059 497.227 118.84C497.227 119.767 496.934 120.474 496.349 120.962C495.763 121.401 494.91 121.62 493.788 121.62H470.811V115.913H489.251L488.08 116.937C488.08 114.937 487.787 113.279 487.202 111.962C486.617 110.596 485.763 109.571 484.641 108.888C483.568 108.205 482.226 107.864 480.616 107.864C478.811 107.864 477.275 108.278 476.006 109.108C474.738 109.937 473.762 111.132 473.079 112.693C472.396 114.254 472.055 116.132 472.055 118.328V118.913C472.055 122.621 472.909 125.352 474.616 127.109C476.372 128.865 478.958 129.743 482.372 129.743C483.543 129.743 484.885 129.596 486.397 129.304C487.909 129.011 489.324 128.548 490.641 127.913C491.763 127.377 492.763 127.206 493.641 127.401C494.519 127.548 495.202 127.938 495.69 128.572C496.178 129.206 496.446 129.938 496.495 130.767C496.593 131.597 496.422 132.426 495.983 133.255C495.544 134.036 494.812 134.694 493.788 135.231C492.129 136.158 490.251 136.841 488.153 137.28C486.104 137.768 484.104 138.011 482.153 138.011ZM508.483 137.865C506.629 137.865 505.215 137.353 504.239 136.328C503.263 135.304 502.775 133.865 502.775 132.011V91.3996C502.775 89.4971 503.263 88.058 504.239 87.0824C505.263 86.1067 506.702 85.6189 508.556 85.6189H526.337C532.094 85.6189 536.533 87.0824 539.655 90.0093C542.777 92.8875 544.338 96.9121 544.338 102.083C544.338 107.254 542.777 111.303 539.655 114.23C536.533 117.157 532.094 118.62 526.337 118.62H514.117V132.011C514.117 133.865 513.63 135.304 512.654 136.328C511.727 137.353 510.337 137.865 508.483 137.865ZM514.117 109.839H524.435C527.362 109.839 529.581 109.181 531.094 107.864C532.655 106.547 533.435 104.62 533.435 102.083C533.435 99.5463 532.655 97.6438 531.094 96.3755C529.581 95.1071 527.362 94.4729 524.435 94.4729H514.117V109.839ZM553.58 137.865C551.726 137.865 550.311 137.377 549.336 136.402C548.36 135.426 547.872 134.036 547.872 132.231V106.254C547.872 104.449 548.336 103.083 549.263 102.156C550.238 101.181 551.58 100.693 553.287 100.693C555.043 100.693 556.385 101.181 557.312 102.156C558.239 103.083 558.702 104.449 558.702 106.254V110.059H557.97C558.556 107.132 559.848 104.864 561.848 103.254C563.849 101.644 566.434 100.742 569.605 100.546C570.824 100.449 571.751 100.766 572.386 101.498C573.068 102.181 573.434 103.327 573.483 104.937C573.581 106.449 573.264 107.644 572.532 108.522C571.849 109.4 570.678 109.937 569.02 110.132L567.337 110.279C564.556 110.522 562.483 111.327 561.117 112.693C559.8 114.059 559.141 116.035 559.141 118.62V132.231C559.141 134.036 558.653 135.426 557.678 136.402C556.751 137.377 555.385 137.865 553.58 137.865ZM592.824 138.011C588.971 138.011 585.605 137.255 582.726 135.743C579.897 134.231 577.702 132.06 576.141 129.231C574.58 126.401 573.799 123.06 573.799 119.206C573.799 116.328 574.238 113.742 575.116 111.449C575.994 109.157 577.263 107.205 578.921 105.595C580.629 103.937 582.653 102.693 584.995 101.864C587.336 100.985 589.946 100.546 592.824 100.546C596.678 100.546 600.02 101.303 602.849 102.815C605.727 104.327 607.947 106.473 609.508 109.254C611.118 112.035 611.923 115.352 611.923 119.206C611.923 122.133 611.459 124.743 610.533 127.035C609.654 129.328 608.386 131.304 606.728 132.962C605.069 134.621 603.044 135.889 600.654 136.767C598.313 137.597 595.703 138.011 592.824 138.011ZM592.824 129.743C594.434 129.743 595.825 129.353 596.995 128.572C598.166 127.791 599.093 126.645 599.776 125.133C600.459 123.572 600.8 121.596 600.8 119.206C600.8 115.645 600.069 113.035 598.605 111.376C597.142 109.669 595.215 108.815 592.824 108.815C591.263 108.815 589.873 109.181 588.654 109.913C587.483 110.644 586.556 111.791 585.873 113.352C585.239 114.864 584.922 116.815 584.922 119.206C584.922 122.767 585.653 125.426 587.117 127.182C588.58 128.889 590.483 129.743 592.824 129.743ZM634.085 151.183C631.451 151.183 628.914 150.963 626.475 150.524C624.084 150.085 621.962 149.427 620.109 148.548C618.987 148.061 618.182 147.426 617.694 146.646C617.255 145.865 617.06 145.036 617.108 144.158C617.206 143.28 617.499 142.499 617.987 141.816C618.523 141.134 619.182 140.646 619.962 140.353C620.743 140.109 621.572 140.182 622.45 140.573C624.597 141.548 626.572 142.182 628.377 142.475C630.231 142.768 631.816 142.914 633.134 142.914C636.256 142.914 638.597 142.207 640.158 140.792C641.719 139.377 642.5 137.207 642.5 134.28V128.718H643.158C642.427 130.962 640.914 132.792 638.622 134.206C636.329 135.621 633.792 136.328 631.012 136.328C627.792 136.328 624.987 135.597 622.597 134.133C620.206 132.621 618.352 130.523 617.035 127.84C615.718 125.108 615.06 121.962 615.06 118.401C615.06 115.718 615.425 113.279 616.157 111.083C616.938 108.888 618.011 107.01 619.377 105.449C620.792 103.888 622.475 102.693 624.426 101.864C626.426 100.985 628.621 100.546 631.012 100.546C633.89 100.546 636.426 101.254 638.622 102.668C640.866 104.034 642.353 105.839 643.085 108.083L642.353 110.425V106.254C642.353 104.449 642.817 103.083 643.744 102.156C644.719 101.181 646.085 100.693 647.842 100.693C649.598 100.693 650.939 101.181 651.866 102.156C652.793 103.083 653.256 104.449 653.256 106.254V133.036C653.256 139.036 651.598 143.548 648.281 146.573C645.012 149.646 640.28 151.183 634.085 151.183ZM634.304 128.06C635.963 128.06 637.378 127.67 638.548 126.889C639.768 126.108 640.719 125.011 641.402 123.596C642.085 122.133 642.427 120.401 642.427 118.401C642.427 115.376 641.671 113.035 640.158 111.376C638.695 109.669 636.743 108.815 634.304 108.815C632.646 108.815 631.207 109.205 629.987 109.986C628.768 110.718 627.816 111.815 627.133 113.279C626.499 114.693 626.182 116.401 626.182 118.401C626.182 121.425 626.914 123.791 628.377 125.499C629.841 127.206 631.816 128.06 634.304 128.06ZM665.713 137.865C663.859 137.865 662.445 137.377 661.469 136.402C660.493 135.426 660.006 134.036 660.006 132.231V106.254C660.006 104.449 660.469 103.083 661.396 102.156C662.372 101.181 663.713 100.693 665.42 100.693C667.177 100.693 668.518 101.181 669.445 102.156C670.372 103.083 670.835 104.449 670.835 106.254V110.059H670.104C670.689 107.132 671.982 104.864 673.982 103.254C675.982 101.644 678.567 100.742 681.738 100.546C682.958 100.449 683.885 100.766 684.519 101.498C685.202 102.181 685.568 103.327 685.616 104.937C685.714 106.449 685.397 107.644 684.665 108.522C683.982 109.4 682.811 109.937 681.153 110.132L679.47 110.279C676.689 110.522 674.616 111.327 673.25 112.693C671.933 114.059 671.274 116.035 671.274 118.62V132.231C671.274 134.036 670.787 135.426 669.811 136.402C668.884 137.377 667.518 137.865 665.713 137.865ZM700.121 138.011C697.487 138.011 695.121 137.499 693.024 136.475C690.926 135.45 689.292 134.06 688.121 132.304C686.95 130.548 686.365 128.572 686.365 126.377C686.365 123.743 687.048 121.669 688.414 120.157C689.78 118.596 691.999 117.498 695.072 116.864C698.146 116.181 702.219 115.84 707.293 115.84H711.171V121.547H707.366C704.878 121.547 702.853 121.694 701.292 121.986C699.78 122.23 698.682 122.669 697.999 123.303C697.365 123.938 697.048 124.816 697.048 125.938C697.048 127.304 697.512 128.426 698.438 129.304C699.414 130.182 700.804 130.621 702.609 130.621C704.024 130.621 705.268 130.304 706.341 129.67C707.463 128.987 708.341 128.084 708.976 126.962C709.61 125.791 709.927 124.474 709.927 123.011V114.596C709.927 112.449 709.439 110.937 708.463 110.059C707.488 109.132 705.829 108.669 703.487 108.669C702.17 108.669 700.731 108.839 699.17 109.181C697.658 109.474 695.975 109.986 694.121 110.718C693.048 111.205 692.097 111.327 691.267 111.083C690.438 110.791 689.804 110.303 689.365 109.62C688.926 108.888 688.706 108.108 688.706 107.278C688.706 106.4 688.95 105.571 689.438 104.79C689.926 103.961 690.731 103.351 691.853 102.961C694.146 102.034 696.292 101.4 698.292 101.059C700.341 100.717 702.219 100.546 703.927 100.546C707.683 100.546 710.756 101.107 713.146 102.229C715.586 103.303 717.415 104.986 718.634 107.278C719.854 109.522 720.464 112.425 720.464 115.986V132.231C720.464 134.036 720.025 135.426 719.147 136.402C718.269 137.377 717 137.865 715.342 137.865C713.683 137.865 712.39 137.377 711.463 136.402C710.585 135.426 710.146 134.036 710.146 132.231V129.523L710.659 129.962C710.366 131.621 709.732 133.06 708.756 134.28C707.829 135.45 706.634 136.377 705.17 137.06C703.707 137.694 702.024 138.011 700.121 138.011ZM732.584 137.865C730.779 137.865 729.389 137.377 728.413 136.402C727.487 135.426 727.023 134.036 727.023 132.231V106.254C727.023 104.449 727.487 103.083 728.413 102.156C729.389 101.181 730.731 100.693 732.438 100.693C734.194 100.693 735.536 101.181 736.463 102.156C737.389 103.083 737.853 104.449 737.853 106.254V110.937L737.048 108.01C738.024 105.766 739.536 103.961 741.585 102.595C743.634 101.229 746.048 100.546 748.829 100.546C751.61 100.546 753.927 101.205 755.781 102.522C757.634 103.839 758.951 105.864 759.732 108.596H758.707C759.781 106.108 761.415 104.156 763.61 102.742C765.854 101.278 768.415 100.546 771.293 100.546C774.074 100.546 776.342 101.107 778.099 102.229C779.904 103.303 781.245 104.961 782.123 107.205C783.001 109.4 783.44 112.205 783.44 115.62V132.231C783.44 134.036 782.952 135.426 781.977 136.402C781.05 137.377 779.708 137.865 777.952 137.865C776.147 137.865 774.757 137.377 773.781 136.402C772.854 135.426 772.391 134.036 772.391 132.231V115.986C772.391 113.596 772.001 111.864 771.22 110.791C770.488 109.669 769.22 109.108 767.415 109.108C765.318 109.108 763.683 109.839 762.513 111.303C761.342 112.766 760.756 114.84 760.756 117.523V132.231C760.756 134.036 760.269 135.426 759.293 136.402C758.366 137.377 757.024 137.865 755.268 137.865C753.512 137.865 752.146 137.377 751.171 136.402C750.195 135.426 749.707 134.036 749.707 132.231V115.986C749.707 113.596 749.317 111.864 748.536 110.791C747.805 109.669 746.536 109.108 744.731 109.108C742.634 109.108 740.999 109.839 739.829 111.303C738.658 112.766 738.072 114.84 738.072 117.523V132.231C738.072 135.987 736.243 137.865 732.584 137.865Z" fill="white"/>
</g>
<defs>
<filter id="filter0_d_557_2158" x="1.52588e-05" y="-3.8147e-06" width="259.435" height="259.435" filterUnits="userSpaceOnUse" color-interpolation-filters="sRGB">
<feFlood flood-opacity="0" result="BackgroundImageFix"/>
<feColorMatrix in="SourceAlpha" type="matrix" values="0 0 0 0 0 0 0 0 0 0 0 0 0 0 0 0 0 0 127 0" result="hardAlpha"/>
<feOffset dy="13.3043"/>
<feGaussianBlur stdDeviation="26.6087"/>
<feComposite in2="hardAlpha" operator="out"/>
<feColorMatrix type="matrix" values="0 0 0 0 1 0 0 0 0 1 0 0 0 0 1 0 0 0 0.1 0"/>
<feBlend mode="normal" in2="BackgroundImageFix" result="effect1_dropShadow_557_2158"/>
<feBlend mode="normal" in="SourceGraphic" in2="effect1_dropShadow_557_2158" result="shape"/>
</filter>
<filter id="filter1_d_557_2158" x="219.522" y="48.2283" width="592.979" height="162.978" filterUnits="userSpaceOnUse" color-interpolation-filters="sRGB">
<feFlood flood-opacity="0" result="BackgroundImageFix"/>
<feColorMatrix in="SourceAlpha" type="matrix" values="0 0 0 0 0 0 0 0 0 0 0 0 0 0 0 0 0 0 127 0" result="hardAlpha"/>
<feOffset dy="13.3043"/>
<feGaussianBlur stdDeviation="13.3043"/>
<feColorMatrix type="matrix" values="0 0 0 0 0 0 0 0 0 0 0 0 0 0 0 0 0 0 0.15 0"/>
<feBlend mode="normal" in2="BackgroundImageFix" result="effect1_dropShadow_557_2158"/>
<feBlend mode="normal" in="SourceGraphic" in2="effect1_dropShadow_557_2158" result="shape"/>
</filter>
</defs>
</svg>
